<?xml version="1.0" encoding="UTF-8" standalone="no"?>
<!-- Created with Inkscape (http://www.inkscape.org/) -->

<svg
   xmlns:dc="http://purl.org/dc/elements/1.1/"
   xmlns:cc="http://creativecommons.org/ns#"
   xmlns:rdf="http://www.w3.org/1999/02/22-rdf-syntax-ns#"
   xmlns:svg="http://www.w3.org/2000/svg"
   xmlns="http://www.w3.org/2000/svg"
   xmlns:sodipodi="http://sodipodi.sourceforge.net/DTD/sodipodi-0.dtd"
   xmlns:inkscape="http://www.inkscape.org/namespaces/inkscape"
   id="svg2"
   version="1.1"
   inkscape:version="0.91 r13725"
   width="239.74426"
   height="239.74426"
   viewBox="0 0 239.74426 239.74426"
   sodipodi:docname="previsecours.svg"
   inkscape:export-filename="previsecours.png"
   inkscape:export-xdpi="180.12512"
   inkscape:export-ydpi="180.12512">
  <metadata
     id="metadata8">
    <rdf:RDF>
      <cc:Work
         rdf:about="">
        <dc:format>image/svg+xml</dc:format>
        <dc:type
           rdf:resource="http://purl.org/dc/dcmitype/StillImage" />
        <dc:title />
      </cc:Work>
    </rdf:RDF>
  </metadata>
  <defs
     id="defs6" />
  <sodipodi:namedview
     pagecolor="#ffffff"
     bordercolor="#666666"
     borderopacity="1"
     objecttolerance="10"
     gridtolerance="10"
     guidetolerance="10"
     inkscape:pageopacity="0"
     inkscape:pageshadow="2"
     inkscape:window-width="1920"
     inkscape:window-height="1050"
     id="namedview4"
     showgrid="false"
     inkscape:zoom="2.7842535"
     inkscape:cx="75.424426"
     inkscape:cy="105.43043"
     inkscape:window-x="0"
     inkscape:window-y="30"
     inkscape:window-maximized="1"
     inkscape:current-layer="svg2" />
  <path
     inkscape:connector-curvature="0"
     id="path3342"
     d="m 72.163022,190.6701 c -6.623472,-2.19172 -11.655632,-7.23125 -13.838446,-13.85871 -0.255323,-0.77521 -1.410574,-0.8391 -15.170961,-0.8391 -16.688646,0 -17.678596,-0.1539 -18.634814,-2.8969 -0.814975,-2.33785 -0.752902,-67.38765 0.06585,-69.00559 0.327847,-0.64786 3.243546,-3.41912 6.479331,-6.158369 l 5.883246,-4.980442 -0.372922,-1.753193 c -0.656774,-3.087647 -0.393635,-9.264068 0.506864,-11.897102 4.300542,-12.574678 20.214541,-17.571989 31.11074,-9.769392 12.688777,9.086231 10.81517,28.159987 -3.434624,34.965378 -3.413489,1.63021 -3.899153,1.73003 -8.417383,1.73003 -4.396632,0 -5.063063,-0.12704 -8.023694,-1.52953 -1.775848,-0.84124 -4.078929,-2.21269 -5.11796,-3.04768 -1.207645,-0.97049 -2.118548,-1.3805 -2.525052,-1.13654 -0.349747,0.20989 -2.417617,1.87565 -4.595267,3.70169 l -3.959363,3.32007 0.123455,30.03326 0.123455,30.03326 12.657398,0 12.6574,0 0.793112,-2.43289 c 1.162065,-3.56465 2.981537,-6.4126 5.753019,-9.005 8.016865,-7.49884 20.712149,-7.10479 28.261182,0.8772 9.618912,10.17058 6.871143,26.08981 -5.56409,32.23564 -3.32275,1.64219 -4.008553,1.80211 -8.23359,1.91998 -2.87836,0.0803 -5.329088,-0.10972 -6.526886,-0.50607 z m 10.894123,-8.32293 c 2.323175,-0.92955 5.779064,-4.75883 6.516681,-7.22079 1.584182,-5.28753 -0.08852,-10.82358 -4.168544,-13.7964 -4.129,-3.0085 -9.023144,-3.32161 -13.535045,-0.86592 -7.318663,3.98331 -8.344544,14.16907 -2.002828,19.88563 1.735048,1.56401 3.182164,2.26863 6.131521,2.98554 1.412962,0.34345 4.977571,-0.15555 7.058215,-0.98806 z M 61.134786,97.399779 c 4.697185,-2.141233 7.439634,-6.319036 7.421543,-11.30586 -0.0256,-7.055314 -5.202206,-12.243318 -12.216428,-12.243318 -12.967789,0 -17.027217,17.418802 -5.408722,23.208544 3.059161,1.524443 7.296401,1.665897 10.203607,0.340634 z M 158.7107,190.64822 c -11.50997,-2.56337 -18.31431,-14.18121 -14.85853,-25.3697 5.36755,-17.37814 29.67135,-19.17126 37.02801,-2.73191 0.7671,1.71417 1.56448,3.44033 1.77197,3.83591 0.32022,0.61052 2.2173,0.71923 12.55194,0.71923 l 12.17469,0 0.12191,-55.11162 c 0.0968,-43.772565 -0.002,-55.190193 -0.47949,-55.49346 -0.33076,-0.210007 -26.39668,-0.385135 -57.92424,-0.389172 -43.95337,-0.0056 -57.457057,0.126858 -57.898243,0.568045 -0.830623,0.830623 -0.830623,55.077737 0,55.908357 0.437202,0.43721 9.133873,0.57539 36.211663,0.57539 l 35.63628,0 0.53257,-1.31859 c 2.90506,-7.19257 5.90502,-10.88764 10.77577,-13.272619 11.45064,-5.606827 25.00108,0.576901 28.29634,12.912999 3.65518,13.6835 -8.76032,27.27127 -22.60526,24.73966 -6.59078,-1.20515 -12.38078,-5.71504 -15.13462,-11.78849 l -1.40552,-3.09982 -39.04004,-0.13079 -39.040038,-0.13079 c -0.761899,0 -2.347365,-0.80106 -2.474348,-2.32486 l 0,-34.116266 0,-34.116265 c 0,-1.257069 0.872644,-2.085118 2.219504,-2.085118 l 63.892462,0 c 40.75951,0 64.21,0.16994 64.76949,0.469366 0.48236,0.258152 1.11549,1.153429 1.40694,1.989503 0.76243,2.18712 0.7485,119.52008 -0.0144,121.70869 -0.95227,2.73168 -1.98771,2.8969 -18.15533,2.8969 -13.30073,0 -14.43708,0.0649 -14.69934,0.8391 -2.6093,7.70303 -8.56944,13.12758 -15.93385,14.502 -3.17401,0.59236 -4.36077,0.56384 -7.72624,-0.18568 z m 9.36373,-8.72097 c 5.3371,-2.53261 8.10824,-8.89975 6.27524,-14.41837 -2.12759,-6.40558 -8.67422,-9.70611 -15.3436,-7.73558 -2.63375,0.77817 -6.6059,4.75033 -7.38407,7.38408 -1.90879,6.46039 1.26932,13.05458 7.38958,15.33248 2.32627,0.86581 6.61355,0.59967 9.06285,-0.56261 z m 20.20887,-54.54254 c 5.59761,-2.89464 8.08698,-8.79151 6.28541,-14.88902 -0.77816,-2.63376 -4.75032,-6.60591 -7.38407,-7.38408 -7.0553,-2.08455 -14.0189,1.83737 -15.57017,8.76917 -1.34788,6.02298 1.75935,11.51368 7.93154,14.0156 1.88399,0.76369 6.83128,0.47396 8.73729,-0.51167 z"
     style="fill:#e82935"
     sodipodi:nodetypes="sssssscssssssscscccccsssssssssssssssssscsscscscsssscssssscccccccssscscsccssssssssssss" />
  <path
     inkscape:connector-curvature="0"
     id="path3340"
     d="m 72.163022,190.6701 c -6.623472,-2.19172 -11.655632,-7.23125 -13.838446,-13.85871 -0.255323,-0.77521 -1.410574,-0.8391 -15.170961,-0.8391 -16.688646,0 -17.678596,-0.1539 -18.634814,-2.8969 -0.814975,-2.33785 -0.752902,-67.38765 0.06585,-69.00559 0.327847,-0.64786 3.243546,-3.41912 6.479331,-6.158369 l 5.883246,-4.980442 -0.372922,-1.753193 c -0.656774,-3.087647 -0.393635,-9.264068 0.506864,-11.897102 4.300542,-12.574678 20.214541,-17.571989 31.11074,-9.769392 12.688777,9.086231 10.81517,28.159987 -3.434624,34.965378 -3.413489,1.63021 -3.899153,1.73003 -8.417383,1.73003 -4.396632,0 -5.063063,-0.12704 -8.023694,-1.52953 -1.775848,-0.84124 -4.078929,-2.21269 -5.11796,-3.04768 -1.207645,-0.97049 -2.118548,-1.3805 -2.525052,-1.13654 -0.349747,0.20989 -2.417617,1.87565 -4.595267,3.70169 l -3.959363,3.32007 0.123455,30.03326 0.123455,30.03326 12.657398,0 12.6574,0 0.793112,-2.43289 c 1.162065,-3.56465 2.981537,-6.4126 5.753019,-9.005 8.016865,-7.49884 20.712149,-7.10479 28.261182,0.8772 9.618912,10.17058 6.871143,26.08981 -5.56409,32.23564 -3.32275,1.64219 -4.008553,1.80211 -8.23359,1.91998 -2.87836,0.0803 -5.329088,-0.10972 -6.526884,-0.50607 z m 10.894123,-8.32293 c 2.323175,-0.92955 5.779064,-4.75883 6.516681,-7.22079 1.584182,-5.28753 -0.08852,-10.82358 -4.168544,-13.7964 -4.129,-3.0085 -9.023144,-3.32161 -13.535045,-0.86592 -7.318663,3.98331 -8.344544,14.16907 -2.002828,19.88563 1.735048,1.56401 3.182164,2.26863 6.131521,2.98554 1.412962,0.34345 4.977571,-0.15555 7.058215,-0.98806 z M 61.134786,97.399779 c 4.697185,-2.141233 7.439634,-6.319036 7.421543,-11.30586 -0.0256,-7.055314 -5.202206,-12.243318 -12.216428,-12.243318 -12.967789,0 -17.027217,17.418802 -5.408722,23.208544 3.059161,1.524443 7.296401,1.665897 10.203607,0.340634 z"
     style="fill:#25499b" />
</svg>
